<mxfile host="app.diagrams.net" agent="Mozilla/5.0 (Windows NT 10.0; Win64; x64) AppleWebKit/537.36 (KHTML, like Gecko) Chrome/117.0.0.0 Safari/537.36" version="24.7.17">
  <diagram name="第 1 页" id="r4rvMmDrdjvyDOHklxGY">
    <mxGraphModel dx="2901" dy="1152" grid="1" gridSize="10" guides="1" tooltips="1" connect="1" arrows="1" fold="1" page="1" pageScale="1" pageWidth="827" pageHeight="1169" math="0" shadow="0">
      <root>
        <mxCell id="0" />
        <mxCell id="1" parent="0" />
        <mxCell id="SaRzh2NArICGT_4w6-94-19" style="edgeStyle=orthogonalEdgeStyle;rounded=0;orthogonalLoop=1;jettySize=auto;html=1;exitX=1;exitY=0.5;exitDx=0;exitDy=0;entryX=0;entryY=0.5;entryDx=0;entryDy=0;" edge="1" parent="1" source="SaRzh2NArICGT_4w6-94-1" target="SaRzh2NArICGT_4w6-94-2">
          <mxGeometry relative="1" as="geometry" />
        </mxCell>
        <mxCell id="SaRzh2NArICGT_4w6-94-32" style="edgeStyle=orthogonalEdgeStyle;rounded=0;orthogonalLoop=1;jettySize=auto;html=1;exitX=0;exitY=0.5;exitDx=0;exitDy=0;entryX=1;entryY=0.5;entryDx=0;entryDy=0;" edge="1" parent="1" source="SaRzh2NArICGT_4w6-94-1" target="SaRzh2NArICGT_4w6-94-16">
          <mxGeometry relative="1" as="geometry" />
        </mxCell>
        <mxCell id="SaRzh2NArICGT_4w6-94-1" value="意图识别" style="rounded=1;whiteSpace=wrap;html=1;" vertex="1" parent="1">
          <mxGeometry x="-590" y="200" width="120" height="60" as="geometry" />
        </mxCell>
        <mxCell id="SaRzh2NArICGT_4w6-94-21" style="edgeStyle=orthogonalEdgeStyle;rounded=0;orthogonalLoop=1;jettySize=auto;html=1;exitX=0.5;exitY=1;exitDx=0;exitDy=0;entryX=0.5;entryY=0;entryDx=0;entryDy=0;" edge="1" parent="1" source="SaRzh2NArICGT_4w6-94-2" target="SaRzh2NArICGT_4w6-94-11">
          <mxGeometry relative="1" as="geometry" />
        </mxCell>
        <mxCell id="SaRzh2NArICGT_4w6-94-22" style="edgeStyle=orthogonalEdgeStyle;rounded=0;orthogonalLoop=1;jettySize=auto;html=1;exitX=0.5;exitY=1;exitDx=0;exitDy=0;entryX=0.5;entryY=0;entryDx=0;entryDy=0;" edge="1" parent="1" source="SaRzh2NArICGT_4w6-94-2" target="SaRzh2NArICGT_4w6-94-13">
          <mxGeometry relative="1" as="geometry" />
        </mxCell>
        <mxCell id="SaRzh2NArICGT_4w6-94-35" style="edgeStyle=orthogonalEdgeStyle;rounded=0;orthogonalLoop=1;jettySize=auto;html=1;exitX=0.5;exitY=1;exitDx=0;exitDy=0;" edge="1" parent="1" source="SaRzh2NArICGT_4w6-94-2" target="SaRzh2NArICGT_4w6-94-29">
          <mxGeometry relative="1" as="geometry" />
        </mxCell>
        <mxCell id="SaRzh2NArICGT_4w6-94-2" value="指令" style="whiteSpace=wrap;html=1;rounded=1;" vertex="1" parent="1">
          <mxGeometry x="-320" y="200" width="120" height="60" as="geometry" />
        </mxCell>
        <mxCell id="SaRzh2NArICGT_4w6-94-4" value="地图展示" style="whiteSpace=wrap;html=1;rounded=1;" vertex="1" parent="1">
          <mxGeometry x="-460" y="540" width="120" height="60" as="geometry" />
        </mxCell>
        <mxCell id="SaRzh2NArICGT_4w6-94-8" style="edgeStyle=orthogonalEdgeStyle;rounded=0;orthogonalLoop=1;jettySize=auto;html=1;exitX=0.5;exitY=1;exitDx=0;exitDy=0;" edge="1" parent="1" source="SaRzh2NArICGT_4w6-94-5" target="SaRzh2NArICGT_4w6-94-1">
          <mxGeometry relative="1" as="geometry" />
        </mxCell>
        <mxCell id="SaRzh2NArICGT_4w6-94-5" value="对话" style="rounded=1;whiteSpace=wrap;html=1;" vertex="1" parent="1">
          <mxGeometry x="-590" y="80" width="120" height="60" as="geometry" />
        </mxCell>
        <mxCell id="SaRzh2NArICGT_4w6-94-9" value="线路规划" style="rounded=1;whiteSpace=wrap;html=1;" vertex="1" parent="1">
          <mxGeometry x="-180" y="420" width="120" height="60" as="geometry" />
        </mxCell>
        <mxCell id="SaRzh2NArICGT_4w6-94-11" value="推荐景酒等" style="rounded=1;whiteSpace=wrap;html=1;" vertex="1" parent="1">
          <mxGeometry x="-460" y="300" width="120" height="60" as="geometry" />
        </mxCell>
        <mxCell id="SaRzh2NArICGT_4w6-94-39" style="edgeStyle=orthogonalEdgeStyle;rounded=0;orthogonalLoop=1;jettySize=auto;html=1;exitX=0.5;exitY=1;exitDx=0;exitDy=0;entryX=0.5;entryY=0;entryDx=0;entryDy=0;" edge="1" parent="1" source="SaRzh2NArICGT_4w6-94-13" target="SaRzh2NArICGT_4w6-94-14">
          <mxGeometry relative="1" as="geometry" />
        </mxCell>
        <mxCell id="SaRzh2NArICGT_4w6-94-40" style="edgeStyle=orthogonalEdgeStyle;rounded=0;orthogonalLoop=1;jettySize=auto;html=1;exitX=0.5;exitY=1;exitDx=0;exitDy=0;" edge="1" parent="1" source="SaRzh2NArICGT_4w6-94-13" target="SaRzh2NArICGT_4w6-94-15">
          <mxGeometry relative="1" as="geometry" />
        </mxCell>
        <mxCell id="SaRzh2NArICGT_4w6-94-41" style="edgeStyle=orthogonalEdgeStyle;rounded=0;orthogonalLoop=1;jettySize=auto;html=1;exitX=0.5;exitY=1;exitDx=0;exitDy=0;" edge="1" parent="1" source="SaRzh2NArICGT_4w6-94-13" target="SaRzh2NArICGT_4w6-94-9">
          <mxGeometry relative="1" as="geometry" />
        </mxCell>
        <mxCell id="SaRzh2NArICGT_4w6-94-13" value="线路接口" style="rounded=1;whiteSpace=wrap;html=1;" vertex="1" parent="1">
          <mxGeometry x="-320" y="300" width="120" height="60" as="geometry" />
        </mxCell>
        <mxCell id="SaRzh2NArICGT_4w6-94-14" value="AI导入" style="rounded=1;whiteSpace=wrap;html=1;" vertex="1" parent="1">
          <mxGeometry x="-460" y="420" width="120" height="60" as="geometry" />
        </mxCell>
        <mxCell id="SaRzh2NArICGT_4w6-94-15" value="智能优化" style="rounded=1;whiteSpace=wrap;html=1;" vertex="1" parent="1">
          <mxGeometry x="-320" y="420" width="120" height="60" as="geometry" />
        </mxCell>
        <mxCell id="SaRzh2NArICGT_4w6-94-36" style="edgeStyle=orthogonalEdgeStyle;rounded=0;orthogonalLoop=1;jettySize=auto;html=1;exitX=0.5;exitY=1;exitDx=0;exitDy=0;" edge="1" parent="1" source="SaRzh2NArICGT_4w6-94-16" target="SaRzh2NArICGT_4w6-94-33">
          <mxGeometry relative="1" as="geometry" />
        </mxCell>
        <mxCell id="SaRzh2NArICGT_4w6-94-37" style="edgeStyle=orthogonalEdgeStyle;rounded=0;orthogonalLoop=1;jettySize=auto;html=1;exitX=0.5;exitY=1;exitDx=0;exitDy=0;entryX=0.5;entryY=0;entryDx=0;entryDy=0;" edge="1" parent="1" source="SaRzh2NArICGT_4w6-94-16" target="SaRzh2NArICGT_4w6-94-34">
          <mxGeometry relative="1" as="geometry" />
        </mxCell>
        <mxCell id="SaRzh2NArICGT_4w6-94-16" value="探索" style="rounded=1;whiteSpace=wrap;html=1;" vertex="1" parent="1">
          <mxGeometry x="-750" y="200" width="120" height="60" as="geometry" />
        </mxCell>
        <mxCell id="SaRzh2NArICGT_4w6-94-29" value="地图接口" style="rounded=1;whiteSpace=wrap;html=1;" vertex="1" parent="1">
          <mxGeometry x="-180" y="300" width="120" height="60" as="geometry" />
        </mxCell>
        <mxCell id="SaRzh2NArICGT_4w6-94-31" style="edgeStyle=orthogonalEdgeStyle;rounded=0;orthogonalLoop=1;jettySize=auto;html=1;exitX=0.5;exitY=1;exitDx=0;exitDy=0;" edge="1" parent="1" source="SaRzh2NArICGT_4w6-94-30" target="SaRzh2NArICGT_4w6-94-2">
          <mxGeometry relative="1" as="geometry" />
        </mxCell>
        <mxCell id="SaRzh2NArICGT_4w6-94-30" value="操作" style="rounded=1;whiteSpace=wrap;html=1;" vertex="1" parent="1">
          <mxGeometry x="-320" y="80" width="120" height="60" as="geometry" />
        </mxCell>
        <mxCell id="SaRzh2NArICGT_4w6-94-33" value="TG" style="rounded=1;whiteSpace=wrap;html=1;" vertex="1" parent="1">
          <mxGeometry x="-800" y="330" width="120" height="60" as="geometry" />
        </mxCell>
        <mxCell id="SaRzh2NArICGT_4w6-94-34" value="问道" style="rounded=1;whiteSpace=wrap;html=1;" vertex="1" parent="1">
          <mxGeometry x="-660" y="330" width="120" height="60" as="geometry" />
        </mxCell>
        <mxCell id="SaRzh2NArICGT_4w6-94-42" value="对话展示" style="whiteSpace=wrap;html=1;rounded=1;" vertex="1" parent="1">
          <mxGeometry x="-710" y="540" width="120" height="60" as="geometry" />
        </mxCell>
      </root>
    </mxGraphModel>
  </diagram>
</mxfile>
